<?xml version="1.0" encoding="utf-8"?>
<!-- Generator: Adobe Illustrator 16.0.0, SVG Export Plug-In . SVG Version: 6.00 Build 0)  -->
<!DOCTYPE svg PUBLIC "-//W3C//DTD SVG 1.1//EN" "http://www.w3.org/Graphics/SVG/1.1/DTD/svg11.dtd">
<svg version="1.1" id="Capa_2" xmlns="http://www.w3.org/2000/svg" xmlns:xlink="http://www.w3.org/1999/xlink" x="0px" y="0px"
	 width="685.5px" height="346.458px" viewBox="0 417.042 685.5 346.458" enable-background="new 0 417.042 685.5 346.458"
	 xml:space="preserve">
<title>logo</title>
<g>
	<g id="_2313842247904">
		<path fill="#FEFEFE" d="M352.363,519.724c0-14.707-9.256-26.684-24.871-30.498c13.626-4.899,19.431-13.978,19.431-25.601
			c0-18.335-12.164-30.31-33.407-30.31h-38.306c-2.702,0.063-4.899,2.199-5.037,4.898v111.832c0.139,2.699,2.335,4.834,5.037,4.898
			h40.85c23.786,0,36.304-12.895,36.304-35.26V519.724z M322.229,466.169c0,9.444-5.804,14.707-15.791,14.707H294.64v-27.779h12.34
			C317.138,453.099,322.22,457.455,322.229,466.169z M326.385,516.64c0,11.081-6.536,17.427-15.804,17.427H294.64v-34.49h13.436
			C319.32,499.576,326.385,506.653,326.385,516.64z M388.741,439.661c0-7.822-6.342-14.165-14.166-14.165
			c-7.825,0-14.167,6.343-14.167,14.165c0,7.826,6.342,14.168,14.167,14.168c0.013,0,0.024,0,0.037,0
			c7.816-0.015,14.147-6.35,14.154-14.168H388.741z M386.827,550.046v-77.707c0.007-2.697-2.175-4.891-4.873-4.898
			c-0.013,0-0.024,0-0.038,0h-24.743c-2.698-0.007-4.893,2.176-4.899,4.873c0,0.009,0,0.017,0,0.024v7.997
			c-0.007,2.697,2.176,4.891,4.873,4.898c0.009,0,0.017,0,0.025,0h5.994v64.813c-0.007,2.698,2.175,4.892,4.873,4.898
			c0.013,0,0.024,0,0.038,0h13.852c2.697,0.016,4.897-2.162,4.91-4.86c0-0.013,0-0.025,0-0.038H386.827z M466.423,554.214v-81.85
			c0.007-2.697-2.175-4.891-4.872-4.898c-0.01,0-0.018,0-0.025,0h-9.621c-2.884,0.067-5.354,2.086-5.993,4.898l-1.259,4.911
			c-3.627-7.265-11.611-11.987-21.055-11.987c-6.991,0.172-13.663,2.957-18.7,7.808c-8.537,8.537-10.891,22.325-10.891,36.517
			c0,37.576,14.884,45.748,29.956,45.748c8.891,0,15.968-4.721,18.889-9.81v10.717c0,11.434-5.264,15.249-14.153,15.249
			c-7.016,0-13.992-1.04-20.702-3.086c-2.72-0.906-4.898,0.365-5.439,2.721l-3.135,11.572c-0.542,2.179-0.178,4.168,2.179,5.036
			c8.537,3.263,17.981,4.534,29.239,4.534c34.125,0,35.572-18.7,35.572-38.131L466.423,554.214z M443.757,510.833
			c0,17.631-4.899,23.926-12.34,23.926c-7.808,0-12.707-4.722-12.707-23.926c0-17.793,3.778-25.424,12.707-25.424
			c7.542,0,12.264,7.442,12.264,25.424H443.757L443.757,510.833z M335.841,595.038v-10.703c-0.084-2.746-2.291-4.951-5.036-5.037
			h-55.596c-2.746,0.086-4.952,2.292-5.037,5.037v111.441c0.085,2.746,2.292,4.951,5.037,5.037h14.342
			c2.746-0.086,4.952-2.292,5.037-5.037v-49.399h32.488c2.748-0.079,4.958-2.288,5.037-5.036v-9.785
			c-0.08-2.748-2.29-4.958-5.037-5.036H294.64v-26.444h36.126c2.75-0.078,4.96-2.288,5.037-5.035h0.038V595.038z M402.58,695.978
			l-0.906-5.264c-0.672-4.585-0.917-9.221-0.731-13.851v-28.66c0-15.804-1.083-37.046-34.679-37.046
			c-8.376,0.213-16.683,1.567-24.693,4.029c-2.908,0.906-3.777,2.72-3.085,5.803l2.519,10.162c0.555,2.52,2.732,3.992,5.994,2.91
			c5.876-1.881,11.99-2.919,18.157-3.086c10.352,0,12.165,3.777,12.165,13.247l-13.613,0.731
			c-22.338,1.258-31.594,13.246-31.594,28.859c0,17.252,8.173,28.32,24.87,28.32c11.081,0,19.241-4.168,23.787-10.703l0.717,4.357
			c0.555,3.262,2.003,5.037,5.037,5.037h11.8c3.274,0,4.722-1.826,4.181-4.912L402.58,695.978z M377.396,671.474
			c0,5.805-5.817,11.799-13.978,11.799c-3.085,0-7.808-2.909-7.808-9.444c0-9.256,5.264-13.436,13.612-13.851l8.173-0.366v11.8
			V671.474z M521.817,695.978v-60.304c0-15.804-8.715-24.517-21.974-24.517c-9.986,0-17.629,4.723-23.422,11.623
			c-3.262-7.441-10.339-11.623-19.958-11.623c-9.268,0-17.076,4.545-22.88,11.081l-1.096-4.534
			c-0.304-2.535-2.483-4.427-5.036-4.369h-10.717c-2.698-0.006-4.892,2.176-4.898,4.873c0,0.014,0,0.025,0,0.037v77.696
			c-0.015,2.697,2.162,4.896,4.861,4.911c0.012,0,0.024,0,0.037,0h13.852c2.698,0.006,4.892-2.176,4.898-4.873
			c0-0.014,0-0.025,0-0.038v-47.021c0-11.068,5.037-17.97,13.071-17.97c3.085,0,6.536,2.356,6.536,7.618v57.371
			c0.006,2.649,2.123,4.813,4.771,4.873h13.788c2.698,0.008,4.892-2.176,4.899-4.873c0-0.014,0-0.025,0-0.037v-46.984
			c0-11.066,5.036-17.969,13.083-17.969c3.086,0,6.535,2.356,6.535,7.619v57.37c0.008,2.692,2.192,4.872,4.886,4.872h13.853
			c2.698,0.008,4.891-2.175,4.898-4.872c0-0.009,0-0.017,0-0.024L521.817,695.978z M561.846,585.606
			c0.008-7.823-6.33-14.172-14.153-14.179c-7.824-0.007-14.171,6.33-14.179,14.153c-0.008,7.824,6.33,14.172,14.154,14.18
			c0.005,0,0.009,0,0.013,0c7.803-0.049,14.103-6.389,14.103-14.191L561.846,585.606z M559.845,695.978v-77.694
			c0.015-2.698-2.162-4.897-4.861-4.911c-0.013,0-0.024,0-0.037,0H530.19c-2.699-0.007-4.892,2.176-4.898,4.873
			c0,0.014,0,0.025,0,0.037v7.984c-0.008,2.698,2.175,4.892,4.872,4.898c0.009,0,0.017,0,0.025,0h5.994v64.813
			c-0.015,2.699,2.162,4.896,4.861,4.911c0.013,0,0.024,0,0.037,0h13.853c2.697,0.007,4.891-2.175,4.898-4.873
			c0-0.013,0-0.024,0-0.038H559.845z M605.177,695.437l-1.259-11.624c-0.365-2.895-1.448-4.356-4.534-3.626
			c-0.952,0.232-1.928,0.354-2.909,0.365c-1.813,0-2.178-2.178-2.178-7.076v-96.268c0.008-2.699-2.175-4.892-4.873-4.899
			c-0.009,0-0.017,0-0.024,0h-13.853c-2.697-0.007-4.891,2.175-4.898,4.873c0,0.009,0,0.017,0,0.024v102.401
			c0,13.788,3.777,22.501,19.241,22.501c6.297,0,9.81-0.717,12.163-1.813c2.356-1.096,3.274-2.519,3.086-4.898L605.177,695.437z
			 M675.19,619.329c1.096-3.777-0.718-5.994-3.438-5.994h-14.115c-2.686-0.021-4.991,1.9-5.452,4.546l-11.61,50.835
			c-1.26,5.439-1.814,9.256-2.52,13.247c0.05-4.481-0.563-8.944-1.813-13.247l-12.895-50.835c-0.729-2.721-2.355-4.546-5.44-4.546
			h-16.004c-2.721,0-4.533,2.178-3.451,5.629l22.15,70.807c0.606,2.701,3.036,4.6,5.805,4.533h7.228
			c-2.519,13.071-8.89,20.525-18.158,24.883c-2.37,0.887-3.574,3.527-2.688,5.898c0.051,0.135,0.107,0.268,0.17,0.398l5.037,9.809
			c1.033,2.439,3.848,3.582,6.288,2.549c0.022-0.01,0.048-0.02,0.071-0.03l3.992-1.825c10.352-4.723,18.888-13.247,23.598-30.675
			L675.19,619.329z"/>
		<path fill="#FEFEFE" d="M277.891,753.438l-0.352-1.726c-0.139-0.68-0.44-0.881-1.07-0.73c-0.385,0.113-0.783,0.181-1.185,0.201
			c-0.49,0-0.742-0.451-0.742-1.385v-28.836c0.007-0.563-0.443-1.025-1.006-1.033c-0.022-0.001-0.044,0-0.065,0h-2.217
			c-0.589-0.035-1.096,0.415-1.131,1.006c0,0.01-0.001,0.018-0.001,0.027v29.416c0,2.945,1.385,4.57,4.281,4.57
			c0.949,0.004,1.892-0.146,2.795-0.441c0.489-0.106,0.8-0.588,0.693-1.078c-0.001-0.002-0.001-0.003-0.001-0.004V753.438
			L277.891,753.438z M296.263,753.676l-0.289-1.512c-0.243-1.312-0.345-2.646-0.303-3.979v-8.688c0-5.037-1.611-8.815-8.348-8.815
			c-2.013,0.048-4.012,0.36-5.943,0.933c-0.503,0.065-0.856,0.527-0.79,1.031c0.011,0.078,0.029,0.154,0.06,0.228l0.403,1.938
			c0.124,0.543,0.665,0.881,1.207,0.756c0.018-0.004,0.034-0.009,0.052-0.014c1.522-0.521,3.114-0.805,4.723-0.844
			c3.438,0,4.219,1.335,4.219,4.182v1.258l-5.101,0.302c-3.979,0.239-7.618,2.305-7.618,7.556c0,4.42,2.519,7.026,6.385,7.026
			c2.661,0.158,5.201-1.138,6.636-3.388l0.34,2.167c0.06,0.588,0.582,1.021,1.171,0.968h2.267c0.643,0,1.033-0.389,0.883-1.02
			L296.263,753.676z M291.302,746.901c-0.33,2.592-2.538,4.529-5.15,4.521c-1.775,0-3.047-1.134-3.047-3.487
			c0-3.627,2.165-4.521,5.149-4.66l3.048-0.15V746.901z M330.011,753.701V732.08c-0.006-0.584-0.485-1.053-1.069-1.046
			c-0.014,0-0.026,0-0.039,0.001h-2.279c-0.562-0.035-1.047,0.393-1.082,0.954c-0.001,0.025-0.002,0.052-0.001,0.078v12.076
			c0,4.659-2.305,7.064-5.503,7.064c-1.764,0-2.847-1.021-2.847-3.137V732.08c0.009-0.563-0.442-1.026-1.005-1.034
			c-0.026,0-0.052,0-0.078,0.002h-2.254c-0.584-0.043-1.089,0.396-1.132,0.979c0,0.018-0.001,0.037-0.002,0.054v16.698
			c0,4.016,2.367,6.182,5.943,6.182c2.78,0.029,5.406-1.266,7.077-3.487l0.642,2.354c0.078,0.525,0.54,0.906,1.07,0.883h1.449
			c0.595,0.02,1.099-0.439,1.132-1.033L330.011,753.701z M352.463,753.701v-16.811c0.241-3.147-2.114-5.896-5.263-6.139
			c-0.256-0.019-0.514-0.022-0.769-0.008c-2.632,0.007-5.107,1.247-6.688,3.35l-0.49-2.165c-0.091-0.561-0.607-0.95-1.172-0.882
			h-1.473c-0.583-0.042-1.09,0.396-1.131,0.979c-0.002,0.018-0.003,0.035-0.003,0.053V753.7c0.04,0.59,0.542,1.042,1.134,1.021
			h2.254c0.577,0.02,1.062-0.43,1.083-1.008c0.001-0.004,0.001-0.009,0.001-0.014v-13.373c-0.19-3.004,2.092-5.596,5.098-5.785
			c0.051-0.003,0.102-0.005,0.153-0.008c2.014,0,2.845,0.983,2.845,3.287V753.7c0.014,0.577,0.493,1.034,1.07,1.021
			c0.004,0,0.009,0,0.013,0h2.255c0.577,0.02,1.062-0.43,1.083-1.008C352.463,753.71,352.463,753.706,352.463,753.701z
			 M363.28,722.774c-0.002-1.684-1.368-3.045-3.051-3.044c-1.681,0.003-3.042,1.364-3.044,3.044
			c-0.002,1.683,1.361,3.049,3.044,3.051c1.683,0.003,3.049-1.359,3.051-3.043C363.28,722.779,363.28,722.776,363.28,722.774z
			 M362.549,753.701V732.08c0.023-0.549-0.402-1.013-0.951-1.036c-0.044-0.001-0.088,0-0.131,0.004h-5.604
			c-0.563-0.008-1.026,0.443-1.034,1.005c0,0.026,0,0.052,0.002,0.079v1.32c-0.043,0.576,0.39,1.076,0.967,1.119
			c0.021,0.002,0.044,0.002,0.065,0.004h2.304v19.126c0.007,0.577,0.48,1.04,1.057,1.033c0.009,0,0.017-0.001,0.026-0.001h2.217
			c0.576,0.021,1.061-0.429,1.082-1.006C362.549,753.718,362.549,753.71,362.549,753.701L362.549,753.701z M381.514,721.54
			l-1.134-2.103c-0.206-0.456-0.742-0.661-1.197-0.454c-0.063,0.025-0.12,0.061-0.175,0.102l-8.06,5.037
			c-0.542,0.34-0.78,0.781-0.441,1.373l0.592,1.031c0.258,0.438,0.817,0.589,1.26,0.34l8.55-3.777
			c0.511-0.134,0.817-0.656,0.683-1.169c-0.028-0.108-0.077-0.212-0.142-0.304L381.514,721.54z M385.569,742.833
			c0-7.555-3.639-12.089-9.532-12.089s-9.532,4.571-9.532,12.089s3.614,12.127,9.508,12.127
			C381.904,754.96,385.569,750.44,385.569,742.833z M381.047,742.833c0,5.943-1.963,8.399-5.035,8.399
			c-3.073,0-4.963-2.519-4.963-8.399c0-5.879,1.915-8.348,4.963-8.348c3.047,0,5.011,2.557,5.011,8.348H381.047z M406.472,753.701
			v-16.811c0.234-3.155-2.134-5.905-5.289-6.14c-0.251-0.018-0.504-0.02-0.755-0.006c-2.628,0.006-5.1,1.246-6.675,3.35
			l-0.491-2.165c-0.09-0.565-0.615-0.956-1.184-0.882h-1.473c-0.584-0.043-1.09,0.396-1.132,0.979
			c-0.001,0.018-0.002,0.037-0.002,0.054v21.621c0.04,0.591,0.542,1.042,1.134,1.021h2.266c0.577,0.014,1.056-0.441,1.07-1.02
			v-0.001v-13.372c-0.184-3.014,2.111-5.604,5.125-5.786c0.046-0.004,0.093-0.006,0.139-0.008c2.016,0,2.847,0.983,2.847,3.288
			v15.878c0.014,0.577,0.492,1.034,1.069,1.021c0.004,0,0.009,0,0.014,0h2.254c0.577,0.021,1.062-0.43,1.083-1.006
			C406.471,753.71,406.471,753.706,406.472,753.701z M439.916,753.701v-32.739c-0.021-0.591-0.516-1.055-1.106-1.033
			c-0.004,0-0.009,0-0.016,0h-2.216c-0.562-0.034-1.046,0.393-1.081,0.955c-0.002,0.025-0.002,0.051-0.002,0.078v12.92
			c-1.007-2.039-3.133-3.277-5.402-3.148c-2.103-0.018-4.103,0.905-5.452,2.519c-1.813,2.267-2.519,5.036-2.519,9.634
			c0,8.537,2.946,12.075,7.769,12.075c2.391,0.113,4.63-1.168,5.743-3.286l0.39,2.002c0.072,0.627,0.629,1.084,1.258,1.033h1.387
			c0.591,0.014,1.087-0.443,1.12-1.033L439.916,753.701z M435.648,742.997c0,5.654-1.574,8.211-4.521,8.211
			c-2.947,0-4.219-2.215-4.219-8.26c-0.162-2.283,0.227-4.572,1.134-6.675c0.586-1.181,1.82-1.894,3.135-1.813
			c2.795-0.024,4.47,2.871,4.47,8.514L435.648,742.997L435.648,742.997z M461.928,742.997c0-9.129-3.778-12.227-8.739-12.227
			c-5.642,0-9.13,4.621-9.13,11.988c0,8.046,3.778,12.228,10.414,12.228c2.093,0.088,4.176-0.317,6.082-1.185
			c0.548-0.157,0.865-0.729,0.706-1.277c-0.004-0.016-0.009-0.03-0.013-0.045l-0.593-1.624c-0.201-0.542-0.541-0.933-1.259-0.681
			c-1.493,0.572-3.073,0.887-4.671,0.933c-4.319,0-5.794-2.519-5.995-7.026h12.177c0.578-0.008,1.041-0.48,1.033-1.059
			c0-0.008,0-0.016,0-0.025H461.928z M457.42,740.743h-8.702c0.491-5.2,2.519-6.435,4.571-6.435
			c3.047-0.024,4.055,3.211,4.131,6.409V740.743L457.42,740.743z M473.588,753.462l-0.353-1.713
			c-0.138-0.691-0.441-0.894-1.083-0.743c-0.381,0.114-0.774,0.181-1.171,0.202c-0.491,0-0.743-0.441-0.743-1.386v-28.861
			c0.008-0.563-0.443-1.025-1.006-1.033c-0.021-0.001-0.043,0-0.064,0.001h-2.217c-0.59-0.035-1.096,0.414-1.132,1.005
			c0,0.009,0,0.017-0.001,0.027v29.415c0,2.947,1.386,4.572,4.281,4.572c0.949,0.002,1.894-0.146,2.796-0.441
			c0.488-0.107,0.799-0.589,0.692-1.08c0,0-0.001-0.002-0.001-0.004L473.588,753.462L473.588,753.462z M503.545,753.714l-0.29-1.523
			c-0.232-1.313-0.33-2.646-0.289-3.979v-8.688c0-5.037-1.624-8.814-8.349-8.814c-2.014,0.043-4.014,0.361-5.943,0.944
			c-0.498,0.05-0.861,0.493-0.812,0.993c0.01,0.091,0.032,0.182,0.069,0.266l0.391,1.864c0.119,0.55,0.664,0.897,1.215,0.776
			c0.04-0.009,0.08-0.02,0.119-0.034c1.517-0.522,3.105-0.807,4.709-0.844c3.438,0,4.218,1.335,4.218,4.181v1.259l-5.1,0.302
			c-3.979,0.239-7.556,2.305-7.556,7.556c0,4.42,2.456,7.026,6.385,7.026c2.662,0.158,5.201-1.139,6.637-3.387l0.339,2.164
			c0.061,0.596,0.588,1.033,1.185,0.983h2.204c0.642,0,1.032-0.403,0.882-1.032L503.545,753.714z M498.583,746.927
			c-0.331,2.59-2.539,4.529-5.15,4.52c-1.763,0-3.048-1.133-3.048-3.487c0-3.627,2.166-4.508,5.164-4.659l3.034-0.151V746.927
			L498.583,746.927z M525.417,753.701v-16.811c0.234-3.155-2.132-5.905-5.289-6.14c-0.251-0.018-0.503-0.02-0.755-0.006
			c-2.545-0.001-4.95,1.158-6.536,3.148v-12.932c0.009-0.563-0.442-1.025-1.006-1.033c-0.021-0.001-0.043,0-0.064,0h-2.216
			c-0.59-0.034-1.098,0.415-1.133,1.006c0,0.01,0,0.018,0,0.027v32.739c0.039,0.591,0.541,1.042,1.133,1.021h2.165
			c0.589,0.021,1.087-0.432,1.121-1.021v-13.372c-0.161-3.035,2.168-5.627,5.202-5.787c0.038-0.003,0.074-0.004,0.112-0.007
			c2.002,0,2.896,0.983,2.896,3.288v15.878c0.034,0.588,0.532,1.041,1.121,1.021h2.165c0.577,0.021,1.062-0.43,1.082-1.006
			C525.417,753.71,525.417,753.706,525.417,753.701z M548.411,742.847c0-7.556-3.639-12.088-9.532-12.088s-9.52,4.569-9.52,12.088
			c0,7.518,3.627,12.126,9.52,12.126s9.532-4.532,9.532-12.138V742.847z M543.891,742.847c0,5.943-1.965,8.398-5.037,8.398
			s-4.961-2.518-4.961-8.398s1.913-8.35,4.961-8.35c3.047,0,5.037,2.545,5.037,8.338V742.847z M564.038,732.583
			c0.18-0.672-0.22-1.361-0.892-1.541c-0.009-0.002-0.018-0.004-0.028-0.007c-0.513-0.198-1.062-0.284-1.611-0.252
			c-2.166,0-3.879,1.775-4.81,3.489l-0.643-2.305c-0.129-0.521-0.598-0.887-1.133-0.883h-1.474
			c-0.576-0.041-1.076,0.392-1.118,0.967c-0.002,0.022-0.002,0.045-0.003,0.066v21.583c0.034,0.588,0.532,1.041,1.12,1.021h2.267
			c0.576,0.035,1.071-0.403,1.106-0.98c0-0.014,0.001-0.025,0.002-0.04v-12.228c0-4.471,1.725-6.297,3.248-6.297
			c0.726,0.059,1.439,0.224,2.116,0.492c0.781,0.251,1.071-0.24,1.259-0.934L564.038,732.583L564.038,732.583z M578.241,732.583
			c0.196-0.666-0.186-1.366-0.853-1.563c-0.015-0.004-0.027-0.008-0.04-0.011c-0.515-0.196-1.063-0.282-1.612-0.251
			c-2.166,0-3.878,1.775-4.811,3.488l-0.643-2.305c-0.127-0.521-0.596-0.887-1.133-0.881h-1.473
			c-0.584-0.043-1.09,0.396-1.131,0.979c-0.002,0.017-0.003,0.035-0.003,0.053v21.608c0.04,0.591,0.542,1.042,1.134,1.021h2.266
			c0.578,0.014,1.057-0.441,1.07-1.02v-0.001v-12.228c0-4.471,1.725-6.297,3.249-6.297c0.722,0.057,1.431,0.222,2.103,0.492
			c0.793,0.251,1.084-0.24,1.259-0.934l0.593-2.152H578.241L578.241,732.583z M598.289,742.847c0-7.556-3.64-12.088-9.532-12.088
			c-5.894,0-9.52,4.569-9.52,12.088c0,7.518,3.627,12.126,9.52,12.126s9.532-4.532,9.532-12.138V742.847z M593.769,742.847
			c0,5.943-1.965,8.398-5.037,8.398s-4.961-2.518-4.961-8.398s1.914-8.35,4.961-8.35c3.048,0,5.037,2.545,5.037,8.338V742.847z"/>
	</g>
	<linearGradient id="SVGID_1_" gradientUnits="userSpaceOnUse" x1="-0.0598" y1="435.3965" x2="189.9362" y2="745.442">
		<stop  offset="0" style="stop-color:#FA8425"/>
		<stop  offset="1" style="stop-color:#FA5F25"/>
	</linearGradient>
	<path fill="url(#SVGID_1_)" d="M242.235,653.302c0,64.96-53.417,105.391-98.646,105.391H29.901
		C14.507,758.667,2.034,746.2,2,730.808V449.749c0.017-15.4,12.498-27.883,27.9-27.899h93.001
		c15.181,0.749,30.061,4.513,43.771,11.072c30.817,15.385,47.175,43.317,47.175,80.36c0,20.199-5.301,38.486-14.914,52.931
		C226.834,584.499,242.235,615.286,242.235,653.302z"/>
	<path fill="#FEFEFE" d="M168.241,500.799v-22.16c-0.124-5.75-4.757-10.383-10.508-10.507H42.777
		c-5.751,0.125-10.385,4.757-10.509,10.507v230.542c0.05,5.806,4.703,10.521,10.509,10.648h29.798
		c5.76-0.125,10.397-4.764,10.522-10.522V607.083h67.155c5.751-0.125,10.383-4.756,10.508-10.508v-20.277
		c-0.116-5.758-4.751-10.398-10.508-10.523H83.034v-54.451h74.729c5.757-0.125,10.393-4.768,10.508-10.523L168.241,500.799
		L168.241,500.799z"/>
</g>
</svg>
