<svg xmlns="http://www.w3.org/2000/svg" viewBox="0 0 1080 1080"><defs><style>.cls-1{fill:#ffd5b8;}.cls-2{fill:#ffd2b3;}.cls-3{fill:#c44747;}.cls-4{fill:#5084c7;}.cls-5{fill:#e55353;}.cls-6{fill:#fae6de;}.cls-7{fill:#eea886;}.cls-8{fill:#303669;}.cls-9{fill:#f26f03;}.cls-10{fill:#a77860;}.cls-11{fill:#1e234d;}.cls-12{fill:#434343;}.cls-13{fill:#a1958c;}.cls-14{fill:#d9c9bd;}.cls-15{fill:#565e96;}.cls-16{fill:#934002;}.cls-17{fill:#223247;}.cls-18{fill:#51578c;}.cls-19{fill:#3e3b42;}.cls-20{fill:#e3a080;}.cls-21{fill:#5dc4bf;}.cls-22{fill:#eb4747;}.cls-23{fill:#1e3a5e;}.cls-24{fill:#a83333;}.cls-25{fill:#eea987;}.cls-26{fill:#fff;}.cls-27{fill:#ea5f00;}.cls-28{fill:#ffa766;}.cls-29{fill:none;stroke:#5dc4bf;stroke-miterlimit:10;stroke-width:2.12px;}.cls-30{fill:#de3573;}.cls-31{fill:#121d2e;}.cls-32{fill:#2f4b78;}.cls-33{fill:#706865;}.cls-34{fill:#131e30;}.cls-35{fill:#323657;}.cls-36{fill:#918783;}.cls-37{fill:#5e5854;}.cls-38{fill:#bfb2ac;}.cls-39{fill:#e2d2ca;}.cls-40{fill:#18263d;}.cls-41{fill:#ebd9d0;}.cls-42{fill:#163342;}.cls-43{fill:#96244e;}</style></defs><title>talk</title><g id="Capa_3" data-name="Capa 3"><path class="cls-1" d="M292.1,202.38H237.27a16.46,16.46,0,0,0-16.44,16.45v27.41h-11a11,11,0,0,0-11,11v60.3h-11v-80a10.88,10.88,0,0,0-3.21-7.75L158.91,204l-7.75,7.75,11.63,11.64,3.12,11.9L177,241.11v-3.56h0v80a11,11,0,0,0,11,11h11a11,11,0,0,0,11-11v-60.3h11v93.2h87.72V218.83A16.47,16.47,0,0,0,292.1,202.38Zm-54.83,11H292.1a5.49,5.49,0,0,1,5.48,5.48v98.68H231.79V218.83A5.49,5.49,0,0,1,237.27,213.35Zm-5.48,126.09v-11h65.79v11Z"/><path class="cls-1" d="M248.24,301.07h32.89a5.49,5.49,0,1,0,0-11H248.24a5.49,5.49,0,0,0,0,11Z"/><path class="cls-1" d="M265.59,273.66a17.35,17.35,0,0,0,15.52-25.1L270.5,227.34a5.49,5.49,0,0,0-9.81,0l-10.61,21.22a17.35,17.35,0,0,0,15.51,25.1Zm-5.7-20.2,5.7-11.41,5.71,11.41a6.38,6.38,0,1,1-11.41,0Z"/><path class="cls-1" d="M279.7,591.38l-7.1-4c5.72-4.9,5.9-10.1,5.9-10.7a4.36,4.36,0,0,0-1.24-3c-.06-.06-5.46-5.66-7.7-11.9-1.88-5.26-1.41-16.53-1.07-20.43a1.62,1.62,0,0,0,0-.22c0-.18,0-.39.05-.65v0a34.82,34.82,0,0,0-8.39-23.78,26.64,26.64,0,0,0-5.82-5.16l3.21-10.05A9.51,9.51,0,0,0,248.49,489H211a9.5,9.5,0,0,0-9,12.51l3.5,10.52a26.23,26.23,0,0,0-5,4.59,34.56,34.56,0,0,0-8.36,24.23V541c.34,3.89.82,15.15-1.07,20.42-2.26,6.3-7.64,11.85-7.69,11.91a4.32,4.32,0,0,0-1.25,3c0,.59.18,5.76,5.83,10.63h0l-7.92,4.4a12.81,12.81,0,0,0-6.58,11.2v21.95a12.8,12.8,0,0,0,12.81,12.8h.08l87.28-.6a12.84,12.84,0,0,0,12.72-12.81V602.58A12.81,12.81,0,0,0,279.7,591.38ZM253.21,595c-5.9,1.15-13.82,5.73-19.38,10.92,1.16-7.78,3.29-16.53,6-22.1a22.42,22.42,0,0,0,4.14-2.36l2.15,1.2C249.54,586.13,253,590.77,253.21,595Zm-23.36,1a82.09,82.09,0,0,0-3.09-10.57c.29,0,.59.07.89.1s.67.05,1,.06.78,0,1.18,0h.9c.74,0,1.45,0,2.14-.09A79,79,0,0,0,229.85,596Zm-18.18-31.8a49.13,49.13,0,0,1-6.8-11.94s0,0,0,0h0c2.15-8.62,5.7-16.93,8.73-18.49,10.48,10.71,15.92,11.27,16.93,11.27a3.05,3.05,0,0,0,.52,0c1-.19,5.14-1.54,16.15-11.12,2.44,2,7.75,10.16,8.79,17.78h0s0,0,0,0a50.62,50.62,0,0,1-7.06,12.55c-2.26,2.74-4.2,5-6,6.74-4.32,4.33-7.62,6-12.22,6-.16,0-.3,0-.45,0s-.29,0-.45,0c-.4,0-.79,0-1.18-.05a18,18,0,0,1-2.26-.33l-.72-.2a6.26,6.26,0,0,1-.61-.21,7.67,7.67,0,0,1-.76-.27,15.84,15.84,0,0,1-2.72-1.52c-.08-.07-.18-.13-.27-.2l-.12-.09a29.84,29.84,0,0,1-3.89-3.46C215.64,568.92,213.8,566.81,211.67,564.23Zm1.84,18.45,2.7-1.49.39.28c.6.42,1.21.81,1.85,1.17a8.08,8.08,0,0,0,.77.43,2.19,2.19,0,0,0,.3.16c2.89,5.52,5.14,14.61,6.34,22.68-5.57-5.19-13.49-9.77-19.4-10.92C206.68,590.79,210.13,586.16,213.51,582.68Zm55.86-4.78a9.66,9.66,0,0,1-2.71,3.19c-2.23,1.8-5.72-.23-5.85-.31a4.63,4.63,0,0,0-1-.43l-1.08-.6-7.95-4.42q2.34-2.57,4.81-5.57a46.91,46.91,0,0,0,5-7.66,23.12,23.12,0,0,0,.74,2.62A45.32,45.32,0,0,0,269.37,577.9Zm-59.19-79.09a.77.77,0,0,1,.12-.74.76.76,0,0,1,.65-.34h37.54a.78.78,0,0,1,.66.33.82.82,0,0,1,.13.74l-2.87,8.94-2.36,7.35H215.61l-2.34-7Zm-3.05,23.4c.41-.47.83-.92,1.26-1.34a4.32,4.32,0,0,0,4.1,2.91h34.73a4.36,4.36,0,0,0,4.14-3l.16-.52a15.7,15.7,0,0,1,1.95,2c7,8.43,6.5,16.81,6.37,18.12-.08.34-.27,1-.53,1.94-2.69-6.62-6.92-12.5-10.32-14a4.24,4.24,0,0,0-4.73.53c-8.71,7.67-12.71,9.84-14,10.4-1.31-.39-5.76-2.25-13.61-10.53a2.93,2.93,0,0,0-2.1-.9c-6.2,0-10.42,7.73-13.06,15.3v0c-.37-1.26-.63-2.18-.74-2.62a1.41,1.41,0,0,1,0-.18v0C200.6,538.43,200.37,530.33,207.13,522.21Zm-7.93,42.11a20.65,20.65,0,0,0,.67-2.33h0a48.11,48.11,0,0,0,5.09,7.76c1.54,1.87,3,3.62,4.52,5.24l-9.18,5.11c-.13.06-.26.14-.4.22a1.09,1.09,0,0,0-.15.08s-3.57,2.11-5.83.29a10,10,0,0,1-2.71-3.19A45.39,45.39,0,0,0,199.2,564.32Zm78.41,59.6a4.12,4.12,0,0,1-4.09,4.12l-87.27.61a3.86,3.86,0,0,1-2.94-1.19,4.12,4.12,0,0,1-1.22-2.93V602.58a4.11,4.11,0,0,1,2.13-3.61l17.8-9.9a15,15,0,0,0-1,9.16,2.89,2.89,0,0,0,2.82,2.26c7.67,0,23,11.82,23,16.47a2.89,2.89,0,0,0,2.9,2.89H230a2.89,2.89,0,0,0,2.9-2.89c0-4.65,15.33-16.47,23-16.47a2.91,2.91,0,0,0,2.83-2.26,15.08,15.08,0,0,0-1-9.18L275.49,599a4.12,4.12,0,0,1,2.12,3.61Z"/><path class="cls-1" d="M225.51,509.31H227v1.44a2.9,2.9,0,1,0,5.79,0v-1.44h1.44a2.9,2.9,0,1,0,0-5.79h-1.44v-1.45a2.9,2.9,0,0,0-5.79,0v1.45h-1.45a2.9,2.9,0,1,0,0,5.79Z"/><path class="cls-1" d="M264.45,610.56h-3.23v-3.23a2.9,2.9,0,0,0-5.79,0v3.23H252.2a2.9,2.9,0,0,0,0,5.79h3.23v3.23a2.9,2.9,0,0,0,5.79,0v-3.23h3.23a2.9,2.9,0,0,0,0-5.79Z"/><path class="cls-1" d="M919.17,326.3a8.73,8.73,0,0,1-7.9-5,34.9,34.9,0,0,0-39.87-19,8.72,8.72,0,1,1-4.18-16.93,52.35,52.35,0,0,1,59.84,28.5,8.72,8.72,0,0,1-7.89,12.44Z"/><path class="cls-1" d="M946.59,307.27a8.72,8.72,0,0,1-7.9-5,61,61,0,0,0-70-33.19,8.72,8.72,0,0,1-4.24-16.92,78.47,78.47,0,0,1,90,42.68,8.72,8.72,0,0,1-7.88,12.44Z"/><path class="cls-1" d="M974.15,288.55a8.71,8.71,0,0,1-7.91-5,87.21,87.21,0,0,0-100.18-47.7,8.72,8.72,0,1,1-4.25-16.92,104.65,104.65,0,0,1,120.24,57.25,8.71,8.71,0,0,1-7.9,12.4Z"/><circle class="cls-1" cx="883.47" cy="328.3" r="8.72"/><path class="cls-1" d="M980.82,489H857.26a18.56,18.56,0,0,0-18.53,18.57v80.3a18.54,18.54,0,0,0,18.53,18.53H980.82a18.54,18.54,0,0,0,18.53-18.53v-80.3A18.56,18.56,0,0,0,980.82,489ZM987,587.91a6.17,6.17,0,0,1-6.17,6.17H857.26a6.17,6.17,0,0,1-6.17-6.17v-80.3a6.18,6.18,0,0,1,6.17-6.2H980.82a6.18,6.18,0,0,1,6.17,6.2ZM968.46,625H869.62a6.18,6.18,0,1,0,0,12.36h98.84a6.18,6.18,0,1,0,0-12.36Z"/><rect class="cls-1" x="937.57" y="606.44" width="12.36" height="18.53"/><rect class="cls-1" x="888.15" y="606.44" width="12.36" height="18.53"/><path class="cls-1" d="M669.44,98.77l-4.14-4.39-1.25-3.29L649.88,52.86a20,20,0,0,0-18.63-12.93H520.37a20,20,0,0,0-18.6,12.93L486.61,93.78l-6,5.56a26.76,26.76,0,0,0-9.39,20.3v61a20,20,0,0,0,19.91,19.8h11.44a19.93,19.93,0,0,0,19.91-19.8v-7.08h104v7.08a19.91,19.91,0,0,0,19.87,19.8h11.48a19.91,19.91,0,0,0,19.87-19.8V118A27,27,0,0,0,669.44,98.77ZM513.25,57a7.56,7.56,0,0,1,7.12-4.92h111A7.63,7.63,0,0,1,638.44,57l12.65,34.05H500.6Zm-3,123.57a7.69,7.69,0,0,1-7.69,7.61H491.11a7.68,7.68,0,0,1-7.69-7.58v-8.5a20.8,20.8,0,0,0,7.69,1.42h19.13Zm155.23,0a7.67,7.67,0,0,1-7.65,7.61H646.34a7.69,7.69,0,0,1-7.68-7.58v-7.08h19.16a20.58,20.58,0,0,0,7.65-1.42Zm-2.27-21.47a7.46,7.46,0,0,1-5.31,2.19H491a7.56,7.56,0,0,1-7.62-7.51V119.64a14.7,14.7,0,0,1,5.39-11.27l5.38-5.06H656.93l3.55,3.79.39.39A14.63,14.63,0,0,1,665.44,118v35.78l0,.57A7.53,7.53,0,0,1,663.2,159.14Z"/><path class="cls-1" d="M638.66,91.09H589.48a25.92,25.92,0,0,1,49.18,0Z"/><path class="cls-1" d="M530.22,117.09H497.7a6.12,6.12,0,0,0-6.1,6.13v22.53a6.13,6.13,0,0,0,6.1,6.13h32.52a6.16,6.16,0,0,0,6.13-6.13V123.22A6.16,6.16,0,0,0,530.22,117.09Zm-6.1,22.56H503.79V129.31h20.33Z"/><path class="cls-1" d="M651.2,117.09H618.68a6.12,6.12,0,0,0-6.1,6.13v22.53a6.13,6.13,0,0,0,6.1,6.13H651.2a6.13,6.13,0,0,0,6.12-6.13V123.22A6.12,6.12,0,0,0,651.2,117.09Zm-6.1,22.56h-6.83v0H624.8V129.31h20.3Z"/><path class="cls-1" d="M595.4,135.32H553.51a6.11,6.11,0,1,0,0,12.21H595.4a6.11,6.11,0,1,0,0-12.21Z"/><path class="cls-1" d="M595.4,121.87H553.51a6.11,6.11,0,0,0,0,12.22H595.4a6.11,6.11,0,1,0,0-12.22Z"/><path class="cls-1" d="M661.87,415.72c8.16-12.25,12.66-27.75,12.66-44.89,0-31.42-13.87-55.09-40-68.15a97,97,0,0,0-37.12-9.38H518.53A23.68,23.68,0,0,0,494.87,317V555.3A23.7,23.7,0,0,0,518.53,579h96.41c38.35,0,83.66-34.29,83.66-89.37C698.6,457.33,685.54,431.23,661.87,415.72ZM627,369.16H563.59v46.19h57a9.1,9.1,0,0,1,8.9,8.92v17.2a9.09,9.09,0,0,1-8.9,8.91h-57v86.69a9.11,9.11,0,0,1-8.92,8.92H529.45a9.11,9.11,0,0,1-8.91-9V341.46a9.13,9.13,0,0,1,8.91-8.92h97.49a9.13,9.13,0,0,1,8.91,8.92v18.79h0A9.09,9.09,0,0,1,627,369.16Z"/><path class="cls-2" d="M88.46,790.87H953.79s131-6.41,63.25,61.23S813.78,891.56,652.22,988.41s-260.67-33.7-472.72-41.77S18,792.24,88.46,790.87Z"/><path class="cls-3" d="M385.64,561.51h66.6a0,0,0,0,1,0,0v15.54a0,0,0,0,1,0,0h-66.6a1.67,1.67,0,0,1-1.67-1.67v-12.2A1.67,1.67,0,0,1,385.64,561.51Z"/><path class="cls-4" d="M394.5,577.05H461.1a0,0,0,0,1,0,0v15.54a0,0,0,0,1,0,0H394.5a1.67,1.67,0,0,1-1.67-1.67v-12.2A1.67,1.67,0,0,1,394.5,577.05Z"/><path class="cls-5" d="M415.19,561.51h66.6a0,0,0,0,1,0,0v15.54a0,0,0,0,1,0,0h-66.6a1.67,1.67,0,0,1-1.67-1.67V563.18A1.67,1.67,0,0,1,415.19,561.51Z"/><path class="cls-4" d="M424.05,577.05h66.61a0,0,0,0,1,0,0v15.54a0,0,0,0,1,0,0h-66.6a1.67,1.67,0,0,1-1.67-1.67v-12.2A1.67,1.67,0,0,1,424.05,577.05Z"/><path class="cls-6" d="M417.06,563.1h64.74a0,0,0,0,1,0,0v12.35a0,0,0,0,1,0,0H417.06a1.67,1.67,0,0,1-1.67-1.67v-9a1.67,1.67,0,0,1,1.67-1.67Z"/><path class="cls-6" d="M425.92,578.87h64.73a0,0,0,0,1,0,0v11.89a0,0,0,0,1,0,0H425.92a1.67,1.67,0,0,1-1.67-1.67v-8.55A1.67,1.67,0,0,1,425.92,578.87Z"/><polygon class="cls-7" points="218.53 821.38 222.65 807.71 241.15 810.37 238.6 822.67 218.53 821.38"/><polygon class="cls-7" points="340.23 822.41 341.4 829.85 361.54 826.13 360.27 815 340.23 822.41"/><path class="cls-8" d="M292.79,583.57s-3.13,26.7-6.56,54.06c-.78,6.23-1.58,12.49-2.36,18.47-2.56,19.66-4.93,36.39-5.94,39.32-2.73,7.9-32.81,117.08-32.81,117.08s-25.6,2.64-26.59-.59c0,0,20.16-122.87,19.79-127.34s4-130.75,4-130.75S291.29,576.32,292.79,583.57Z"/><path class="cls-8" d="M319.84,545.24s26.39,123.49,28.63,133,16.25,139.48,16.25,139.48-8.21,5.75-27.88,4.75c0,0-29.93-136.46-32.32-141-9.27-17.58-41.38-104.75-45.86-116.94S241.8,540,241.8,540,274.15,521.05,319.84,545.24Z"/><path class="cls-7" d="M388.31,412.36s18.62-10.14,20.37-9.73,2.17,1.52.47,2.54-17.74,10.35-17.74,10.35,23.83-8.1,25.34-8.09c.88,0,1.83,2.06,1,2.7s-24.1,10.1-24.1,10.1,22.27-7.52,23.52-7.12a1.75,1.75,0,0,1-.1,3.18c-1.62.68-22,8.9-22,8.9s16.51-4.4,17.36-3.39c.51.62,1.42,2.37-2.87,3.36s-14.2,4.46-14.2,4.46Z"/><path class="cls-7" d="M368.55,427.54s5.94-3.75,5.64-7.88c-.25-3.52,1.81-8.32,2.44-9.8.84-2,1.34-9,3.66-8s-.29,11.64-.43,14,7.74-4.05,10-4,11.1,14.26,5.24,18-14.33,3.63-15.24,4.5a43.42,43.42,0,0,1-4.17,2.89Z"/><path class="cls-9" d="M306.86,412s13.56,35.12,16.34,35,49.16-22.81,49.16-22.81,8.38,12.62,6.09,14.13c-3.18,2.1-63.16,44.48-67.73,42.27S304.09,451,304.09,451,292.7,413.54,306.86,412Z"/><path class="cls-7" d="M310.89,357.5s-.1,1.31-.21,3.33c-.09,1.49-.18,3.37-.26,5.4-.2,5.5-.25,12.12.48,15.12,1.37,5.63-24.09-17.24-24.09-17.24a279.05,279.05,0,0,0-.66-39.47C284.23,303.83,310.89,357.5,310.89,357.5Z"/><path class="cls-9" d="M320.89,482.38c-1.72,9-1.83,20.84-1.13,34.06.29,5.61.72,11.48,1.24,17.48.7,8.18,1.56,16.64,2.39,25.13,0,0-17.13,8.93-84.77,19.82-2.69-87.74,17-177.58,17-177.58,5-19,15.46-25.93,31.19-37.82.09,0,2.22.18,23.07,15.1,1.5,1.08,9,15,13.34,30.38,7.66,27.24,5.7,41.36.25,62.43-.59,2.35-1.22,4.79-1.83,7.36C321.39,479.9,321.14,481.12,320.89,482.38Z"/><path class="cls-10" d="M310.68,360.83c-.09,1.49-.22,4.38-.29,6.41a67.14,67.14,0,0,1-14.29-13.53C299.92,357.51,310.68,360.83,310.68,360.83Z"/><path class="cls-11" d="M286.23,637.63c-.78,6.23-1.58,12.49-2.36,18.47h0c-9.5-24-19.05-74.67-19.24-75.58C266,584.1,286.23,637.63,286.23,637.63Z"/><path class="cls-7" d="M286.84,363.47s32,35.08,40,60.7c0,0-2.21-21.25-16.3-45.52C310.5,378.65,300.61,363.66,286.84,363.47Z"/><path class="cls-7" d="M326.76,305s8.78,14.88,8.81,18-3.74,3.13-1.77,6.39,6,9.37,4.05,11.35-6.54,1-7.49,5.26-6.32,17.17-12.21,17.15S292,352.89,290.62,348.73s-9.05-27.38-11.5-31.85,40.23-26,43.94-18.95Z"/><path class="cls-12" d="M326,303.49s6.34-3.09,4.07-9.37S322.39,279.51,310,283.5,288.24,296,279.67,297.37s-10.55,9.73-3,25.28,10.55,23.44,10.55,23.44S289.79,332.44,293,333s8.48-8.33,8.48-8.33l.87,2.29,5.78-.39s-7.54-16.29-3.55-18.35S325.35,305.3,326,303.49Z"/><path class="cls-12" d="M308.17,326.53s3.83,13.94,7,14.1,14,1.92,16,3.52a3,3,0,0,1,.91,3.23c-.66,2-2.57,14.08,1.26,18.09,0,0-2.73,4.3-16.4-.49s-20.87-11.27-20.87-11.27,9.8-18.66,6.29-26.79Z"/><path class="cls-7" d="M301.51,322.26s-4-7.53-11.21-2.3c-5.26,3.8,1.73,16.49,7.18,16.24S304.46,328.85,301.51,322.26Z"/><path class="cls-9" d="M269.63,434.86l43.31-7.78s-2.53-49.31-28.07-47.24S262.77,405.57,269.63,434.86Z"/><path class="cls-7" d="M378.85,559.06s4.68,2.06,6.86,2,15.57-1.44,17.31.86,14.6,15.28,12.85,17.24-3.05,1-3.92,0-10.78-9.32-12-9.46c0,0,8.83,9.9,7.3,12.84s-4.25,2.4-5.88,3-4.36,2.61-7.3,1.3-14.15-13.51-16.88-15.26-15.57-8.42-15.68-9.08S378.85,559.06,378.85,559.06Z"/><rect class="cls-13" x="394.45" y="609.41" width="10.2" height="252.28"/><rect class="cls-14" x="389.95" y="592.54" width="395.51" height="16.87" transform="translate(1175.41 1201.95) rotate(180)"/><rect class="cls-13" x="764.49" y="609.41" width="10.2" height="252.28" transform="translate(1539.19 1471.09) rotate(180)"/><path class="cls-15" d="M341.4,829.85s15.19-3.22,15.72-3.69,3.69-6.55,6.07-5.54,2.53,8.33,4.86,9.54,20.74,13.17,23,15.37,16,.64,17.68,4.5,1.94,13-18.66,11.25-44,2-48.48-.4S340.09,835.8,341.4,829.85Z"/><path class="cls-15" d="M218.53,821.38s15.51-.75,16.1-1.13,4.7-5.88,6.88-4.5,1.17,8.63,3.27,10.19S263.15,842.26,265,844.8s15.73,3.2,16.74,7.27-.17,13.19-20.21,8.12-43.77-5.11-47.8-8.15S216.28,827,218.53,821.38Z"/><path class="cls-16" d="M321,533.92s-28.19-26-29.76-30.49-17.3-64.31-17.78-66.2l46.3,79.21C320.05,522.05,320.48,527.92,321,533.92Z"/><path class="cls-9" d="M302.86,398s-6.16-21.08-28.4-11.65c-12.25,5.19-12.47,20.71,7,74.24,0,0,13.54,36.5,16.91,40.54,12.21,14.7,62.47,64.74,68.64,66.53l13.9-9.08s-25.52-28.83-34.84-41-25.52-38.61-25.52-38.61Z"/><path class="cls-17" d="M901.1,306.71s6.7-14.65,20.23-8.23,11.3,25.85,6.27,34.06-23,20.35-17.14,35.14a166.29,166.29,0,0,0,13.24,26.23s-36.28-1.65-40.32-20.92S901.1,306.71,901.1,306.71Z"/><path class="cls-7" d="M994.49,532.15s4.71,4.32,4.41,8.11-.68,15.68.89,16.88,3.21.14,3.37-1.88,1-11.53,2.11-11.27c10,2.33,21.08,21.1,24.43,25.59,1.07,1.44,3.43,1.35,3.58-.54a108.24,108.24,0,0,0-9.64-23.68c-6.77-12.11-20.25-21.61-20.25-21.61Z"/><polygon class="cls-18" points="853.55 348.96 881.29 324.09 865.36 310.78 840.36 336.96 853.55 348.96"/><polygon class="cls-19" points="854.31 346.37 878.31 324.85 864.53 313.34 842.9 335.99 854.31 346.37"/><path class="cls-20" d="M837.74,349.43s4.2-1,2.93-5.69.67-5.83.67-5.83L856,351.19s-7.07,6.49-9.22,6.75S835.59,352,837.74,349.43Z"/><path class="cls-20" d="M856,351.19s8.87-5.4,9.7-6.21a76.6,76.6,0,0,0,6.41-6.54c1.62-2.13-4.87-1.57-6.74.64a10.37,10.37,0,0,1-4.86,3.33c-1.3.5-9.18,1-10.73,3.16S856,351.19,856,351.19Z"/><path class="cls-20" d="M844.08,335a1.07,1.07,0,0,0,1.91-.22c.84-1.52.76-5-1.4-4.17S844.08,335,844.08,335Z"/><path class="cls-20" d="M846.8,330.37s.38,2.59,1.72,1.42,2.66-5.52.32-5.39S846.8,330.37,846.8,330.37Z"/><path class="cls-20" d="M850.6,326.58s0,3.12,1.56,2.22c1.17-.69,2.82-6.32.48-6.2S850.6,326.58,850.6,326.58Z"/><path class="cls-21" d="M885.9,846c-5.6,1.69-7.28,11.19-12,14s-28,4.76-28.82-2.51,9.75-13.8,14.5-17.43,16.89-16.61,19.07-21.37c0,0,1.28,2.82,5.72,2.47,5.75-.47,7.08-1.79,7.08-1.79.92,5.73,1.76,9.63,2.32,11.81C895.69,838.73,891.49,844.33,885.9,846Z"/><path class="cls-21" d="M923.84,847.31c-4.32,3.93-5.14,10.2-9.9,13a24.71,24.71,0,0,1-7.27,2.19c-5.8,1-13.17,1.27-16.78-.84a3.93,3.93,0,0,1-2.17-3c-.84-7.27,9.94-15.42,14.7-19.06,2.92-2.24,6-7.44,8.37-12.22,1.51-3,2.77-5.81,3.61-7.65l.85-1.24a4.07,4.07,0,0,0,1,2c1,.69,1.93,1.67,5.2,1.14,4.56-.75,6.31-2,6.83-2.4a.46.46,0,0,0,.07-.07l.07-.07,0,0h0c.94,4.55,2.41,9.2,3,11.38C933.43,838,927.93,843.58,923.84,847.31Z"/><path class="cls-7" d="M852.76,523.18s-15.31,53.38-18,67S824.63,669.77,823.83,681s25,63.83,26.41,67.61c5.45,14.69,27.72,67.95,27.72,67.95s14.38,8.55,12.77-4c-4.89-38-7.19-47.42-10.61-67.16-7.5-43.22-23-48.89-20.62-55.19,24-63.73,28.8-107,32-110.72s3.65,1.91,5.51,10.19S896.26,655,899.63,677c1.83,12,6,38.83,7.29,54.33s8.33,87.18,8.33,87.18.92,2.68,11.61-3.24c1.77-1,10.25-63.37,10.52-81.8s-7.89-21.06-1.35-56.74c14-76.48,12.07-89.65-4.26-144.62C891.79,397.59,852.76,523.18,852.76,523.18Z"/><path class="cls-22" d="M993.47,535.62c.9-.21-20.55-44.54-24-50.69-6.29-11.39-9.11-13.91-14.21-24.78-5.24-11.18-22.67-40.66-26.3-51a29.42,29.42,0,0,1-1.75,4.24c-7.62,15.57-10.09,34.92-11.1,52-.78,13.23,2.78,23.46,7.59,34.28,1.69,3.79,3.53,7.64,5.39,11.72,2.44,5.36,5.89,10.88,1.15,15.76-4.27,4.4-12.63,5.29-18.23,6-1.31.16-2.67.33-4.09.48-13.59,1.46-32,1.9-44-3.05-16.21-6.69-13.3-27.09-15-41.34-1.15-9.53-9.69-40.06-12.33-49.31s1.68-20.5,4.46-30.93c-1.73.61-3.7,1.29-5.82,2-16,5.41-41.47,13-49.54,6.19-9.7-8.16-2.41-18.42,3.85-27.13,10.28-14.29,39.35-32.39,46.45-42.84a110.4,110.4,0,0,1,13,12.17l-24.46,24.95c-1.39,1.6-2.94,3.28-4.51,4.9l-1.24,1.25a0,0,0,0,0,0,0c2.94-1.59,6.07-3.3,9-5h0c2.24-1.29,4.35-2.57,6.15-3.77,11.32-7.55,15.67-7.66,29.63-13.22,12.09-4.82,25.79-5.05,38-1.93,8.61,2.19,14.14,3.5,22.5,5.4l2.73.61c-2-.54,1.89.4.08,0l2.12.54c9.58,2.41,18.12,13.2,23.19,25.49,3,7.34,16.32,37.64,18.86,45.16,3.05,9,35,73.9,39.54,83.73C1010.56,527.65,1005.29,532.85,993.47,535.62Z"/><path class="cls-7" d="M906.09,367.84S892,396,876.36,401.91c0,0-15.39-13.66-11.25-33.9C865.11,368,886.75,359.59,906.09,367.84Z"/><path class="cls-23" d="M932.15,518.61s24.31,50.34,8,152.47c0,0-49.58-4.65-123.92-10,0,0,33.82-137.38,34.77-146.11S932.15,518.61,932.15,518.61Z"/><path class="cls-7" d="M877.53,815.54a10.9,10.9,0,0,0,13.31-1.76l.57,5.58s-9.89,9.92-12.8-.68Z"/><path class="cls-7" d="M917.27,814.64s4.15,3.75,10.41-1.85l.81,6.25s-10.33,10.05-13.24-.56Z"/><path class="cls-22" d="M820,389.33l-1.24,1.25A13.33,13.33,0,0,1,820,389.33Z"/><path class="cls-24" d="M845.93,396.21c-2.17,3.13-4.9,12.88-4.9,12.88-1.73.61-3.7,1.29-5.82,2C837.47,405.05,845.67,396.47,845.93,396.21Z"/><path class="cls-18" d="M911.43,299.36s7.53,3.77,7.11,14.79-11.22,19.53-15.9,17.29S911.43,299.36,911.43,299.36Z"/><path class="cls-25" d="M863.71,282.62s-14.65,9.63-13.39,30,8.09,40.74,12.28,42.56,21.3-5.81,24.83-7.67c4-2.12,11.63-8.84,13-11.21s16.14-34.7,1.91-47S880.73,276.48,863.71,282.62Z"/><path class="cls-25" d="M898,373.31s-7.39-19.12-.69-38.93-28.61,15.91-28.61,15.91,0,1.83,0,4.47c0,1.89,0,4.2-.11,6.55a79.88,79.88,0,0,1-.86,11.3C866.64,377.91,898,373.31,898,373.31Z"/><path class="cls-17" d="M875.43,306.9s-12.56,4.61-25.18,3.49c0,0-4.11-36,32-36s30.76,36,30.06,40.88-9.09,22.42-16.82,26.48c0,0,4.55-18.53-.61-21.88S878.08,312.47,875.43,306.9Z"/><path class="cls-25" d="M887.43,316c.74-4.09,4.61-7.95,9.07-3.76s-3.07,14.65-6.28,14.09S886.45,321.41,887.43,316Z"/><path class="cls-10" d="M868.62,361.31h0s14.41-4.74,18.81-13.81c0,0-10.82,5.4-18.7,7.26C868.72,356.65,868.69,359,868.62,361.31Z"/><path class="cls-23" d="M930.28,527.21c-4.27,4.4-12.63,5.29-18.23,6-1.31.16-2.67.33-4.09.48-10.79-10-20.16-20.57-20.16-20.57l35.76-13.61.18.19c1.69,3.79,3.53,7.64,5.39,11.72C931.57,516.81,935,522.33,930.28,527.21Z"/><path class="cls-26" d="M608.81,347a41.34,41.34,0,0,1-.21-82.67h.22A41.34,41.34,0,0,1,609,347Z"/><path class="cls-27" d="M608.82,266.37a39.28,39.28,0,0,1,.2,78.55h-.21a39.28,39.28,0,0,1-.2-78.55h.21m0-4.13h-.23a43.4,43.4,0,0,0,.22,86.8H609a43.4,43.4,0,0,0-.22-86.8Z"/><polygon class="cls-27" points="604.53 347.46 609.1 359.32 613.54 347.41 604.53 347.46"/><path class="cls-26" d="M807.24,317.46a41.36,41.36,0,1,1,21.65-6.16A41.13,41.13,0,0,1,807.24,317.46Z"/><path class="cls-27" d="M807.16,236.83a39.28,39.28,0,1,1-20.57,5.85,39,39,0,0,1,20.57-5.85h0m0-4.12a43.4,43.4,0,1,0,37,20.63,43.21,43.21,0,0,0-37-20.63Z"/><polygon class="cls-27" points="825.29 314.06 835.37 321.81 832.97 309.33 825.29 314.06"/><path class="cls-26" d="M404.32,328.22a45.64,45.64,0,0,1-.23-91.27h.24a45.64,45.64,0,0,1,.23,91.27Z"/><path class="cls-27" d="M404.33,239.22a43.37,43.37,0,0,1,.22,86.73h-.23a43.37,43.37,0,0,1-.22-86.73h.23m0-4.55h-.25a47.92,47.92,0,0,0,.24,95.83h.25a47.92,47.92,0,0,0-.24-95.83Z"/><polygon class="cls-27" points="358.56 293.29 349.19 303.73 363.13 302.13 358.56 293.29"/><path class="cls-9" d="M413,259.27H395.69a5.19,5.19,0,0,0-5.18,5.18v36.27a5.19,5.19,0,0,0,5.18,5.18H413a5.19,5.19,0,0,0,5.18-5.18V264.45A5.19,5.19,0,0,0,413,259.27Zm-17.27,3.46H413a1.73,1.73,0,0,1,1.73,1.72v27.63H394V264.45A1.73,1.73,0,0,1,395.69,262.73ZM413,302.44H395.69a1.73,1.73,0,0,1-1.73-1.72v-5.18h20.73v5.18A1.73,1.73,0,0,1,413,302.44Z"/><circle class="cls-28" cx="404.33" cy="298.99" r="1.73"/><path class="cls-9" d="M617.45,282.33H600.18a5.19,5.19,0,0,0-5.18,5.18v36.26a5.2,5.2,0,0,0,5.18,5.19h17.27a5.19,5.19,0,0,0,5.18-5.19V287.51A5.18,5.18,0,0,0,617.45,282.33Zm-17.27,3.45h17.27a1.74,1.74,0,0,1,1.73,1.73v27.63H598.46V287.51A1.73,1.73,0,0,1,600.18,285.78Zm17.27,39.72H600.18a1.72,1.72,0,0,1-1.72-1.73v-5.18h20.72v5.18A1.73,1.73,0,0,1,617.45,325.5Z"/><circle class="cls-28" cx="608.82" cy="322.05" r="1.73"/><path class="cls-9" d="M815.83,252.8H798.56a5.19,5.19,0,0,0-5.18,5.18v36.27a5.19,5.19,0,0,0,5.18,5.18h17.27a5.19,5.19,0,0,0,5.18-5.18V258A5.19,5.19,0,0,0,815.83,252.8Zm-17.27,3.46h17.27a1.72,1.72,0,0,1,1.73,1.72v27.63H796.84V258A1.72,1.72,0,0,1,798.56,256.26ZM815.83,296H798.56a1.72,1.72,0,0,1-1.72-1.72v-5.18h20.72v5.18A1.72,1.72,0,0,1,815.83,296Z"/><circle class="cls-28" cx="807.2" cy="292.52" r="1.73"/><path class="cls-29" d="M715.41,565.07c8.77-4.2,17.49,23.72,17.49,23.72,14.91,19.7,35.74-6.5,33.7,22.94-3.56,51.52,59.3,16.2,30.3,70s25.61,30.42,7.59,73.79,5.33,95.1-21.78,73.84c0,0-23.88-52.36-48.51-68.56s14.75-35.43,7-57.43c-11.19-32-38.16-30.71-18.72-65.06S685.59,579.33,715.41,565.07Z"/><path class="cls-21" d="M791.29,809.65c-11.75-8.27-25.51-65.88-26.33-100.2-.42-17.58-5.62-24.9-10.2-31.36-4.38-6.18-8.17-11.51-6-23.76,4.21-23.41-6.87-33.51-7-33.61l1.28-1.46c.49.43,12,10.85,7.61,35.41-2.06,11.45,1.33,16.23,5.63,22.29,4.51,6.36,10.13,14.27,10.56,32.44.88,36.83,15,91.23,25.51,98.66Z"/><path class="cls-21" d="M795.69,813.92a25.51,25.51,0,0,1-5-.54c-4.53-.92-7.5-3.31-8.83-7.11-3.17-9.06,4.18-23.78,10.14-30.88.09-.12,10.07-12.31,9-29.21-.18-2.83-.47-5.45-.73-7.76-.75-6.69-1.29-11.52,1.58-14.75,2.54-2.84,7.42-4.07,16.34-4.11,15.64-.08,21.83-6.55,26.8-11.76a28.36,28.36,0,0,1,6.53-5.62h0c7.8-4.26,16.06-4.88,19.64-1.49,1.7,1.62,3.13,4.77.32,10.66a41.12,41.12,0,0,1-8.6,11.53c-3.61,3.69-6,6.12-4.76,11,.29,1.14.63,2.29,1,3.45,2.41,8.24,5.14,17.6-9,23.94-3,1.35-5.72,2.42-8.13,3.36-9.85,3.87-15.8,6.21-22.52,20.38-1.3,2.74-2.45,5.35-3.56,7.86C810.64,804.84,806.63,813.92,795.69,813.92Zm56.79-110c-2.16,1.17-4,3.06-6.05,5.25-5.23,5.47-11.73,12.28-28.2,12.36-8.2,0-12.8,1.11-14.89,3.47-2.3,2.58-1.8,7-1.11,13.23.27,2.34.56,5,.74,7.86a46.36,46.36,0,0,1-9.46,30.58c-5.89,7-12.58,21-9.78,29,1.08,3.11,3.57,5.07,7.38,5.84,13.29,2.69,17-5.63,23-19.41,1.12-2.53,2.27-5.14,3.58-7.91,7-14.87,13.62-17.45,23.57-21.36,2.39-.93,5.09-2,8.05-3.32,12.57-5.65,10.3-13.41,7.9-21.63-.34-1.17-.68-2.35-1-3.51-1.51-5.91,1.47-9,5.25-12.81a38.77,38.77,0,0,0,8.23-11c1.28-2.67,2.33-6.3.1-8.42-2.94-2.78-10.4-2-17.37,1.79Z"/><path class="cls-21" d="M790.93,825.14,789,825c.1-1.83,2.55-44.82,19.81-57.4,18.94-13.81,24.91-28.65,27.75-38.6,3.35-11.74,20.41-14.87,21.13-15L858,716c-.16,0-16.58,3.06-19.6,13.62-2.92,10.23-9,25.48-28.48,39.64C793.42,781.25,791,824.7,790.93,825.14Z"/><path class="cls-29" d="M830.4,608.46c-12.27-4.21-9.72,19.44-14.9,36.94s-57.68,7.63-35.65,51.45-27.86,14.65-13,52.89,1.3,79.13,17.5,68.73,9.1-58.55,26-64.28,19.6-12.39,2.92-28,43.71-31,28.81-62.4S844.58,613.32,830.4,608.46Z"/><path class="cls-21" d="M791.91,816.63c-1.55-6.54-14.72-64.15-2.43-71.11,10.84-6.14,10.57-30,8.88-52.55-1.5-20,24.13-29.27,25.22-29.66l.65,1.83c-.25.09-25.32,9.22-23.93,27.69,1.74,23.15,1.92,47.71-9.86,54.38-9.34,5.29-.74,51.59,3.36,69Z"/><polygon class="cls-21" points="819.8 796.12 802.28 862.59 763.13 862.59 745.61 796.12 819.8 796.12"/><path class="cls-21" d="M819.8,796.12s-38.57,7.24-38.57,66.46h-18.1l-17.52-66.46Z"/><path class="cls-7" d="M496,499s-4.68-6.05-5-11.48-6-14.33-8.52-16.45-20.19-18.59-22.56-19-3,2.91-1.22,4.5S476,474.35,476,474.35s-18.13-16.91-20.36-16.92-4.27,2.3-2.47,5.35c0,0-5.29,2.1-1,6.48l8.41,8.76s-5.21-3.79-3.92.91c.69,2.5,11.44,11.28,13,13.67s14.3,13.24,14.3,13.24Z"/><path class="cls-30" d="M670,489.63s8,3.12,4.76,42.14-17-13.31-17-13.31Z"/><path class="cls-31" d="M593.37,824.44s1.49,11,1.68,12.6,16.63-1,16.63-1L613,823S595.42,822.89,593.37,824.44Z"/><path class="cls-32" d="M594.87,835.65s-14,7.93-19.07,10.81-20.55,4.37-20,7.36,5.05,9.72,26,9.53,31,1.31,33.25-2.24-3.24-26.2-3.24-26.2S607,838,594.87,835.65Z"/><rect class="cls-33" x="629.84" y="600.78" width="9.21" height="255.1"/><path class="cls-34" d="M562.5,701.22s24.94,124.36,28.58,125.2,25.86-1.22,25.86-1.22,1-69.33-.35-84.46-1.68-44-1.68-44Z"/><path class="cls-35" d="M488.57,503.92h.05C488.42,504,488.39,504,488.57,503.92Z"/><polygon class="cls-36" points="708.93 855.05 706.52 861.82 604.86 830.32 609.73 816.61 708.93 855.05"/><rect class="cls-36" x="601.37" y="714.96" width="11.56" height="110.54" transform="translate(1214.29 1540.46) rotate(180)"/><rect class="cls-37" x="573.07" y="709.09" width="68.16" height="6.51" transform="translate(1214.29 1424.69) rotate(180)"/><polygon class="cls-36" points="504.47 855.05 506.87 861.82 608.54 830.32 604.07 815.75 504.47 855.05"/><polygon class="cls-36" points="576.1 861.1 576.1 868.97 608.54 830.32 604.07 815.75 576.1 861.1"/><path class="cls-38" d="M495,864.47a9.5,9.5,0,1,0,9.5-9.51A9.5,9.5,0,0,0,495,864.47Z"/><path class="cls-38" d="M575.29,864.47a9.5,9.5,0,1,0,9.5-9.51A9.51,9.51,0,0,0,575.29,864.47Z"/><path class="cls-38" d="M699.43,864.47a9.5,9.5,0,1,0,9.5-9.51A9.5,9.5,0,0,0,699.43,864.47Z"/><rect class="cls-39" x="525.97" y="684.42" width="161.46" height="24.67" rx="4.21" ry="4.21" transform="translate(1213.4 1393.51) rotate(-180)"/><path class="cls-31" d="M518.49,842l2.41,13.85s17.78-1.07,18.53-3.5S537.48,837,537.48,837Z"/><path class="cls-32" d="M539.58,851.39s5.59,18.88,1.66,26-16.63,8.4-21.3,8-17.38-4.67-29.15-4.11-25.59-2.43-22.23-9.72,29-5,36.83-11.77,14.87-7.62,14.87-7.62S520.33,858.12,539.58,851.39Z"/><path class="cls-40" d="M655.81,643.2s2.26,35-15.12,41.49L505.34,695.11s37.3,146,37.3,148.49l-25.52,4.91s-61.82-133.3-64.75-140.28c-3.64-8.69-3.36-31.67,7.29-40.36s79-33.26,92.48-34.14S655.81,643.2,655.81,643.2Z"/><path class="cls-25" d="M629.11,452.15s-.5,9.05-.75,20.67-31.63,4-31.63,4,1.42-12.56-2.19-16.56S629.11,452.15,629.11,452.15Z"/><path class="cls-25" d="M591.14,397.32c-1.63,4.74-12.29,9-10.66,38.8s13.35,28.19,22.33,27.86,25.29-2.63,35.2-24.31,2.62-36.11-2.69-45.4S591.14,397.32,591.14,397.32Z"/><path class="cls-41" d="M499.19,499.32l-3.33-5s-17.75,9.85-17,12.21A21.52,21.52,0,0,0,482,512Z"/><path class="cls-42" d="M582.85,411.57s-2.39-.86-3.43-4.41-1-28.8,30.23-24.36c23.47,3.35,26.24,2.65,33.07,12.35,7.73,11,1.8,45.43-13.67,58.23,0,0-18.28-6.39-23.47-21.77-1.56-4.63,4.59-17.44-4.32-17.25-6.62.14-9,16.37-9,16.37l-4.43.75S596.06,407.09,582.85,411.57Z"/><path class="cls-41" d="M596.73,476.78v-3.49s25.44-7.6,31.72-4l-.09,3.52Z"/><path class="cls-30" d="M670,489.63c-2.52-1.4-38.54-16.25-41.63-16.81s-31.63,4-31.63,4-35.36,18.85-40.62,23.51c-4.7,4.16-28.51,35.72-29.44,34.6s-25.79-36.81-25.79-36.81L480.52,513s37,75.67,48,70.44,29.9-31.77,29.9-31.77,10.8,32.66,10.8,40.79-19.14,37-17.09,41.24a2.12,2.12,0,0,0,.64.45c5.75,4.06,49.71,34.09,79.88,26.36,22.66-5.81,25.13-18.45,25.13-18.45s1.63-38.45,2.47-50.22c.31-4.42,2.47-18.18,2.81-25.66C659,547.84,670,489.63,670,489.63Z"/><polygon class="cls-43" points="526.67 534.89 512.8 548.26 520.96 526.87 526.67 534.89"/><rect class="cls-39" x="613.8" y="512.92" width="111.35" height="154.22" rx="14.14" ry="14.14" transform="translate(1338.95 1180.06) rotate(180)"/><path class="cls-39" d="M633.53,703c16.42,0,29.73-5.52,39.58-16.39,22.26-24.57,18.26-67.78,18.08-69.6a6.2,6.2,0,1,0-12.33,1.22c0,.49,3.59,39.64-15,60.09-7.5,8.27-17.43,12.29-30.37,12.29a6.2,6.2,0,0,0,0,12.39Z"/></g></svg>